<svg width="227" height="27" viewBox="0 0 227 27" fill="none" xmlns="http://www.w3.org/2000/svg">
<path d="M13.397 23.9972V15.8011H16.162L16.573 12.5921H13.397V10.5481C13.397 9.62215 13.655 8.98815 14.984 8.98815H16.668V6.12715C15.849 6.03915 15.025 5.99715 14.201 6.00015C11.757 6.00015 10.079 7.49215 10.079 10.2311V12.5862H7.33203V15.7951H10.085V23.9972H13.397Z" fill="#333232"/>
<path d="M73.999 10.377C71.445 10.377 69.376 12.447 69.376 15C69.376 17.554 71.445 19.624 73.999 19.624C76.551 19.624 78.622 17.554 78.622 15C78.622 12.447 76.551 10.377 73.999 10.377ZM73.999 18.004C72.34 18.004 70.995 16.659 70.995 15.001C70.995 13.342 72.34 11.998 73.999 11.998C75.658 11.998 77.001 13.342 77.001 15.001C77.001 16.659 75.658 18.004 73.999 18.004Z" fill="#333232"/>
<path d="M78.806 11.2849C79.4014 11.2849 79.884 10.8023 79.884 10.2069C79.884 9.61154 79.4014 9.12891 78.806 9.12891C78.2107 9.12891 77.728 9.61154 77.728 10.2069C77.728 10.8023 78.2107 11.2849 78.806 11.2849Z" fill="#333232"/>
<path d="M82.533 9.11088C82.064 7.90188 81.109 6.94588 79.9 6.47888C79.201 6.21588 78.462 6.07488 77.714 6.05888C76.751 6.01688 76.446 6.00488 74.004 6.00488C71.562 6.00488 71.249 6.00488 70.294 6.05888C69.548 6.07388 68.809 6.21488 68.11 6.47888C66.9 6.94588 65.945 7.90188 65.477 9.11088C65.214 9.81088 65.073 10.5489 65.058 11.2969C65.015 12.2589 65.002 12.5639 65.002 15.0069C65.002 17.4489 65.002 17.7599 65.058 18.7169C65.073 19.4649 65.214 20.2029 65.477 20.9039C65.946 22.1119 66.901 23.0679 68.111 23.5359C68.807 23.8079 69.546 23.9619 70.296 23.9859C71.259 24.0279 71.564 24.0409 74.006 24.0409C76.448 24.0409 76.761 24.0409 77.716 23.9859C78.463 23.9709 79.202 23.8289 79.902 23.5669C81.111 23.0979 82.066 22.1429 82.535 20.9339C82.798 20.2339 82.939 19.4959 82.954 18.7479C82.997 17.7859 83.01 17.4809 83.01 15.0379C83.01 12.5949 83.01 12.2849 82.954 11.3279C82.941 10.5699 82.801 9.81888 82.533 9.11088ZM81.315 18.6429C81.308 19.2189 81.204 19.7899 81.004 20.3309C80.699 21.1179 80.078 21.7399 79.292 22.0419C78.757 22.2409 78.193 22.3449 77.622 22.3529C76.672 22.3969 76.404 22.4079 73.968 22.4079C71.53 22.4079 71.281 22.4079 70.313 22.3529C69.744 22.3459 69.178 22.2409 68.644 22.0419C67.855 21.7409 67.23 21.1189 66.925 20.3309C66.729 19.7969 66.623 19.2319 66.614 18.6619C66.571 17.7119 66.561 17.4439 66.561 15.0079C66.561 12.5709 66.561 12.3219 66.614 11.3529C66.621 10.7769 66.725 10.2069 66.925 9.66588C67.23 8.87688 67.855 8.25588 68.644 7.95388C69.178 7.75588 69.744 7.65088 70.313 7.64288C71.264 7.59988 71.531 7.58788 73.968 7.58788C76.405 7.58788 76.655 7.58788 77.622 7.64288C78.193 7.64988 78.757 7.75488 79.292 7.95388C80.078 8.25688 80.699 8.87888 81.004 9.66588C81.2 10.1999 81.306 10.7649 81.315 11.3349C81.358 12.2859 81.369 12.5529 81.369 14.9899C81.369 17.4259 81.369 17.6879 81.326 18.6439H81.315V18.6429Z" fill="#333232"/>
<path d="M148.633 10.9966C148.646 11.1716 148.646 11.3456 148.646 11.5196C148.646 16.8446 144.593 22.9806 137.186 22.9806C134.904 22.9806 132.784 22.3196 131 21.1716C131.324 21.2086 131.636 21.2216 131.973 21.2216C133.856 21.2216 135.589 20.5856 136.974 19.5006C135.203 19.4636 133.719 18.3036 133.207 16.7076C133.456 16.7446 133.706 16.7696 133.968 16.7696C134.329 16.7696 134.692 16.7196 135.029 16.6326C133.182 16.2586 131.799 14.6376 131.799 12.6796V12.6296C132.336 12.9286 132.959 13.1156 133.619 13.1406C132.534 12.4186 131.823 11.1836 131.823 9.78655C131.823 9.03855 132.022 8.35255 132.371 7.75455C134.354 10.1976 137.335 11.7946 140.677 11.9696C140.615 11.6696 140.577 11.3586 140.577 11.0466C140.577 8.82655 142.373 7.01855 144.605 7.01855C145.765 7.01855 146.812 7.50455 147.548 8.29055C148.458 8.11555 149.33 7.77855 150.104 7.31755C149.805 8.25255 149.168 9.03855 148.333 9.53755C149.144 9.44955 149.93 9.22555 150.652 8.91355C150.104 9.71155 149.419 10.4226 148.633 10.9966Z" fill="#333232"/>
<path d="M203.557 10.7051H202.069C202.014 10.7051 201.968 10.7483 201.963 10.8028L201.963 10.803L201.159 20.9346C201.159 20.9347 201.159 20.9347 201.159 20.9348C201.121 21.4326 201.287 21.909 201.627 22.2764C201.968 22.6437 202.43 22.8457 202.931 22.8457H211.341C211.842 22.8457 212.304 22.6437 212.645 22.2764C212.985 21.909 213.151 21.4327 213.113 20.9335L203.557 10.7051ZM203.557 10.7051V11.9036C203.557 12.2499 203.837 12.5307 204.184 12.5307C204.53 12.5307 204.811 12.2499 204.811 11.9036V10.7051H209.461V11.9036C209.461 12.2499 209.742 12.5307 210.088 12.5307C210.435 12.5307 210.715 12.2499 210.715 11.9036V10.7051H212.203C212.257 10.7051 212.304 10.7479 212.309 10.8042L212.309 10.8045L213.113 20.9332L203.557 10.7051ZM214.363 20.836L214.363 20.8357L213.559 10.7069L213.46 10.7145L213.559 10.7066L213.559 10.7067C213.505 10.0021 212.91 9.45075 212.203 9.45075H210.715C210.7 7.4901 209.1 5.9 207.136 5.9C205.172 5.9 203.572 7.4901 203.557 9.45075H202.069C201.362 9.45075 200.767 10.002 200.713 10.7054C200.713 10.7054 200.713 10.7055 200.713 10.7055L199.909 20.8371L199.909 20.8373C199.844 21.6763 200.135 22.5114 200.707 23.1287C201.279 23.746 202.089 24.1 202.931 24.1H211.341C212.183 24.1 212.993 23.746 213.565 23.1287C214.137 22.5113 214.428 21.6763 214.363 20.836ZM210.715 9.55075H210.615V9.47938L210.715 9.55075ZM204.811 9.45075C204.827 8.18194 205.864 7.15434 207.136 7.15434C208.408 7.15434 209.446 8.18198 209.461 9.45075H204.811Z" fill="#333232" stroke="#333232" stroke-width="0.2"/>
<circle cx="218.136" cy="9" r="7.75" fill="#333232" stroke="#FFF7F2" stroke-width="1.5"/>
<path d="M218.304 12.1172C217.973 12.1172 217.689 12.0703 217.452 11.9766C217.218 11.8802 217.033 11.7396 216.897 11.5547C216.762 11.3698 216.663 11.1589 216.601 10.9219C216.541 10.6823 216.511 10.4049 216.511 10.0898V9.85938H217.851V10.0859C217.853 10.4167 217.887 10.651 217.952 10.7891C218.017 10.9245 218.14 10.9922 218.319 10.9922C218.494 10.9922 218.61 10.9258 218.667 10.793C218.724 10.6602 218.753 10.4388 218.753 10.1289C218.753 9.79036 218.705 9.54297 218.608 9.38672C218.515 9.23047 218.336 9.14844 218.073 9.14062H217.839V8.20312H218.05C218.321 8.20052 218.506 8.1276 218.604 7.98438C218.703 7.83854 218.753 7.59896 218.753 7.26562C218.753 7.0026 218.718 6.80859 218.647 6.68359C218.58 6.55859 218.46 6.49609 218.288 6.49609C218.119 6.49609 218.004 6.5638 217.944 6.69922C217.884 6.83203 217.853 7.02995 217.851 7.29297V7.625H216.511V7.23438C216.511 6.65625 216.667 6.20964 216.979 5.89453C217.295 5.57943 217.729 5.42188 218.284 5.42188C218.852 5.42188 219.292 5.57292 219.604 5.875C219.917 6.17448 220.073 6.60938 220.073 7.17969C220.073 7.54688 219.998 7.85938 219.847 8.11719C219.698 8.375 219.508 8.53516 219.276 8.59766C219.808 8.79036 220.073 9.28906 220.073 10.0938C220.073 10.401 220.041 10.6745 219.976 10.9141C219.913 11.1536 219.813 11.3659 219.675 11.5508C219.539 11.7331 219.356 11.8737 219.124 11.9727C218.892 12.069 218.619 12.1172 218.304 12.1172Z" fill="#FFF7F2"/>
</svg>
