<svg width="114" height="57" viewBox="0 0 114 57" fill="none" xmlns="http://www.w3.org/2000/svg">
<rect y="12" width="10" height="21" rx="2" fill="#FFDDC4"/>
<rect y="24" width="10" height="9" rx="2" fill="#FF7E20" fill-opacity="0.9"/>
<rect x="17" y="12" width="10" height="21" rx="2" fill="#FFDDC4"/>
<rect x="17" y="19" width="10" height="14" rx="2" fill="#FF7E20" fill-opacity="0.9"/>
<path d="M50.82 33.21C48.84 33.21 47.02 32.75 45.36 31.83C43.7 30.89 42.38 29.6 41.4 27.96C40.44 26.3 39.96 24.43 39.96 22.35C39.96 20.27 40.44 18.41 41.4 16.77C42.38 15.11 43.7 13.82 45.36 12.9C47.02 11.98 48.84 11.52 50.82 11.52C52.82 11.52 54.64 11.98 56.28 12.9C57.94 13.82 59.25 15.11 60.21 16.77C61.17 18.41 61.65 20.27 61.65 22.35C61.65 24.43 61.17 26.3 60.21 27.96C59.25 29.6 57.94 30.89 56.28 31.83C54.62 32.75 52.8 33.21 50.82 33.21ZM50.82 27.75C52.32 27.75 53.5 27.26 54.36 26.28C55.24 25.3 55.68 23.99 55.68 22.35C55.68 20.67 55.24 19.35 54.36 18.39C53.5 17.41 52.32 16.92 50.82 16.92C49.3 16.92 48.11 17.41 47.25 18.39C46.39 19.35 45.96 20.67 45.96 22.35C45.96 24.01 46.39 25.33 47.25 26.31C48.11 27.27 49.3 27.75 50.82 27.75ZM77.6733 29.55H70.1733L69.0333 33H62.8533L70.5633 11.85H77.3433L85.0233 33H78.8133L77.6733 29.55ZM76.2033 25.05L73.9233 18.21L71.6733 25.05H76.2033ZM100.17 33L96.0598 27.03L92.5498 33H85.8598L92.7298 22.17L85.6198 11.85H92.5498L96.5398 17.67L99.9598 11.85H106.65L99.8698 22.5L107.1 33H100.17Z" fill="#FF7E20"/>
<path d="M5.34 49.145C5.34 49.755 5.265 50.305 5.115 50.795C4.965 51.285 4.74 51.7025 4.44 52.0475C4.145 52.3925 3.775 52.6575 3.33 52.8425C2.885 53.0275 2.3675 53.12 1.7775 53.12C1.5075 53.12 1.2425 53.1025 0.9825 53.0675C0.7225 53.0375 0.45 52.9875 0.165 52.9175C0.18 52.7175 0.1975 52.5175 0.2175 52.3175C0.2375 52.1175 0.255 51.9175 0.27 51.7175C0.285 51.6075 0.3275 51.52 0.3975 51.455C0.4725 51.385 0.5775 51.35 0.7125 51.35C0.7975 51.35 0.9075 51.3675 1.0425 51.4025C1.1825 51.4375 1.3575 51.455 1.5675 51.455C1.8525 51.455 2.105 51.415 2.325 51.335C2.545 51.25 2.7275 51.1175 2.8725 50.9375C3.0225 50.7575 3.135 50.525 3.21 50.24C3.285 49.95 3.3225 49.6 3.3225 49.19V42.155H5.34V49.145ZM12.0178 51.3725C12.4078 51.3725 12.7553 51.3075 13.0603 51.1775C13.3703 51.0475 13.6303 50.865 13.8403 50.63C14.0503 50.395 14.2103 50.11 14.3203 49.775C14.4353 49.44 14.4928 49.065 14.4928 48.65V42.155H16.5103V48.65C16.5103 49.295 16.4053 49.8925 16.1953 50.4425C15.9903 50.9875 15.6928 51.46 15.3028 51.86C14.9178 52.255 14.4478 52.565 13.8928 52.79C13.3378 53.01 12.7128 53.12 12.0178 53.12C11.3178 53.12 10.6903 53.01 10.1353 52.79C9.58031 52.565 9.10781 52.255 8.71781 51.86C8.33281 51.46 8.03531 50.9875 7.82531 50.4425C7.62031 49.8925 7.51781 49.295 7.51781 48.65V42.155H9.53531V48.6425C9.53531 49.0575 9.59031 49.4325 9.70031 49.7675C9.81531 50.1025 9.97781 50.39 10.1878 50.63C10.4028 50.865 10.6628 51.0475 10.9678 51.1775C11.2778 51.3075 11.6278 51.3725 12.0178 51.3725ZM20.8106 53H18.7856V42.155H20.8106V53ZM30.6863 50.4425C30.7963 50.4425 30.8938 50.485 30.9788 50.57L31.7738 51.4325C31.3338 51.9775 30.7913 52.395 30.1463 52.685C29.5063 52.975 28.7363 53.12 27.8363 53.12C27.0313 53.12 26.3063 52.9825 25.6613 52.7075C25.0213 52.4325 24.4738 52.05 24.0188 51.56C23.5638 51.07 23.2138 50.485 22.9688 49.805C22.7288 49.125 22.6088 48.3825 22.6088 47.5775C22.6088 46.7625 22.7388 46.0175 22.9988 45.3425C23.2588 44.6625 23.6238 44.0775 24.0938 43.5875C24.5688 43.0975 25.1338 42.7175 25.7888 42.4475C26.4438 42.1725 27.1688 42.035 27.9638 42.035C28.7538 42.035 29.4538 42.165 30.0638 42.425C30.6788 42.685 31.2013 43.025 31.6313 43.445L30.9563 44.3825C30.9163 44.4425 30.8638 44.495 30.7988 44.54C30.7388 44.585 30.6538 44.6075 30.5438 44.6075C30.4688 44.6075 30.3913 44.5875 30.3113 44.5475C30.2313 44.5025 30.1438 44.45 30.0488 44.39C29.9538 44.325 29.8438 44.255 29.7188 44.18C29.5938 44.105 29.4488 44.0375 29.2838 43.9775C29.1188 43.9125 28.9263 43.86 28.7063 43.82C28.4913 43.775 28.2413 43.7525 27.9563 43.7525C27.4713 43.7525 27.0263 43.84 26.6213 44.015C26.2213 44.185 25.8763 44.435 25.5863 44.765C25.2963 45.09 25.0713 45.49 24.9113 45.965C24.7513 46.435 24.6713 46.9725 24.6713 47.5775C24.6713 48.1875 24.7563 48.73 24.9263 49.205C25.1013 49.68 25.3363 50.08 25.6313 50.405C25.9263 50.73 26.2738 50.98 26.6738 51.155C27.0738 51.325 27.5038 51.41 27.9638 51.41C28.2388 51.41 28.4863 51.395 28.7063 51.365C28.9313 51.335 29.1363 51.2875 29.3213 51.2225C29.5113 51.1575 29.6888 51.075 29.8538 50.975C30.0238 50.87 30.1913 50.7425 30.3563 50.5925C30.4063 50.5475 30.4588 50.5125 30.5138 50.4875C30.5688 50.4575 30.6263 50.4425 30.6863 50.4425ZM35.1807 43.76V46.7675H38.9757V48.32H35.1807V51.3875H39.9957V53H33.1557V42.155H39.9957V43.76H35.1807Z" fill="#333232"/>
<path d="M51.1815 43.9325C51.1365 44.0075 51.0865 44.065 51.0315 44.105C50.9815 44.14 50.919 44.1575 50.844 44.1575C50.759 44.1575 50.659 44.115 50.544 44.03C50.429 43.945 50.284 43.8525 50.109 43.7525C49.939 43.6475 49.7315 43.5525 49.4865 43.4675C49.2465 43.3825 48.954 43.34 48.609 43.34C48.284 43.34 47.9965 43.385 47.7465 43.475C47.5015 43.56 47.294 43.6775 47.124 43.8275C46.959 43.9775 46.834 44.155 46.749 44.36C46.664 44.56 46.6215 44.7775 46.6215 45.0125C46.6215 45.3125 46.694 45.5625 46.839 45.7625C46.989 45.9575 47.184 46.125 47.424 46.265C47.669 46.405 47.944 46.5275 48.249 46.6325C48.559 46.7325 48.874 46.8375 49.194 46.9475C49.519 47.0575 49.834 47.1825 50.139 47.3225C50.449 47.4575 50.724 47.63 50.964 47.84C51.209 48.05 51.404 48.3075 51.549 48.6125C51.699 48.9175 51.774 49.2925 51.774 49.7375C51.774 50.2075 51.694 50.65 51.534 51.065C51.374 51.475 51.139 51.8325 50.829 52.1375C50.524 52.4425 50.1465 52.6825 49.6965 52.8575C49.2515 53.0325 48.744 53.12 48.174 53.12C47.474 53.12 46.839 52.995 46.269 52.745C45.699 52.49 45.2115 52.1475 44.8065 51.7175L45.2265 51.0275C45.2665 50.9725 45.314 50.9275 45.369 50.8925C45.429 50.8525 45.494 50.8325 45.564 50.8325C45.629 50.8325 45.7015 50.86 45.7815 50.915C45.8665 50.965 45.9615 51.03 46.0665 51.11C46.1715 51.19 46.2915 51.2775 46.4265 51.3725C46.5615 51.4675 46.714 51.555 46.884 51.635C47.059 51.715 47.2565 51.7825 47.4765 51.8375C47.6965 51.8875 47.944 51.9125 48.219 51.9125C48.564 51.9125 48.8715 51.865 49.1415 51.77C49.4115 51.675 49.639 51.5425 49.824 51.3725C50.014 51.1975 50.159 50.99 50.259 50.75C50.359 50.51 50.409 50.2425 50.409 49.9475C50.409 49.6225 50.334 49.3575 50.184 49.1525C50.039 48.9425 49.8465 48.7675 49.6065 48.6275C49.3665 48.4875 49.0915 48.37 48.7815 48.275C48.4715 48.175 48.1565 48.075 47.8365 47.975C47.5165 47.87 47.2015 47.75 46.8915 47.615C46.5815 47.48 46.3065 47.305 46.0665 47.09C45.8265 46.875 45.6315 46.6075 45.4815 46.2875C45.3365 45.9625 45.264 45.5625 45.264 45.0875C45.264 44.7075 45.3365 44.34 45.4815 43.985C45.6315 43.63 45.8465 43.315 46.1265 43.04C46.4115 42.765 46.759 42.545 47.169 42.38C47.584 42.215 48.059 42.1325 48.594 42.1325C49.194 42.1325 49.739 42.2275 50.229 42.4175C50.724 42.6075 51.159 42.8825 51.534 43.2425L51.1815 43.9325ZM62.5361 42.2525V53H61.0811V48.11H55.2836V53H53.8286V42.2525H55.2836V47.045H61.0811V42.2525H62.5361ZM75.2136 47.63C75.2136 48.435 75.0861 49.175 74.8311 49.85C74.5761 50.52 74.2161 51.0975 73.7511 51.5825C73.2861 52.0675 72.7261 52.445 72.0711 52.715C71.4211 52.98 70.7011 53.1125 69.9111 53.1125C69.1211 53.1125 68.4011 52.98 67.7511 52.715C67.1011 52.445 66.5436 52.0675 66.0786 51.5825C65.6136 51.0975 65.2536 50.52 64.9986 49.85C64.7436 49.175 64.6161 48.435 64.6161 47.63C64.6161 46.825 64.7436 46.0875 64.9986 45.4175C65.2536 44.7425 65.6136 44.1625 66.0786 43.6775C66.5436 43.1875 67.1011 42.8075 67.7511 42.5375C68.4011 42.2675 69.1211 42.1325 69.9111 42.1325C70.7011 42.1325 71.4211 42.2675 72.0711 42.5375C72.7261 42.8075 73.2861 43.1875 73.7511 43.6775C74.2161 44.1625 74.5761 44.7425 74.8311 45.4175C75.0861 46.0875 75.2136 46.825 75.2136 47.63ZM73.7211 47.63C73.7211 46.97 73.6311 46.3775 73.4511 45.8525C73.2711 45.3275 73.0161 44.885 72.6861 44.525C72.3561 44.16 71.9561 43.88 71.4861 43.685C71.0161 43.49 70.4911 43.3925 69.9111 43.3925C69.3361 43.3925 68.8136 43.49 68.3436 43.685C67.8736 43.88 67.4711 44.16 67.1361 44.525C66.8061 44.885 66.5511 45.3275 66.3711 45.8525C66.1911 46.3775 66.1011 46.97 66.1011 47.63C66.1011 48.29 66.1911 48.8825 66.3711 49.4075C66.5511 49.9275 66.8061 50.37 67.1361 50.735C67.4711 51.095 67.8736 51.3725 68.3436 51.5675C68.8136 51.7575 69.3361 51.8525 69.9111 51.8525C70.4911 51.8525 71.0161 51.7575 71.4861 51.5675C71.9561 51.3725 72.3561 51.095 72.6861 50.735C73.0161 50.37 73.2711 49.9275 73.4511 49.4075C73.6311 48.8825 73.7211 48.29 73.7211 47.63ZM80.4679 47.825C80.8829 47.825 81.2479 47.77 81.5629 47.66C81.8829 47.55 82.1504 47.3975 82.3654 47.2025C82.5854 47.0025 82.7504 46.765 82.8604 46.49C82.9704 46.215 83.0254 45.9125 83.0254 45.5825C83.0254 44.8975 82.8129 44.3625 82.3879 43.9775C81.9679 43.5925 81.3279 43.4 80.4679 43.4H78.7429V47.825H80.4679ZM80.4679 42.2525C81.1479 42.2525 81.7379 42.3325 82.2379 42.4925C82.7429 42.6475 83.1604 42.87 83.4904 43.16C83.8204 43.45 84.0654 43.8 84.2254 44.21C84.3904 44.62 84.4729 45.0775 84.4729 45.5825C84.4729 46.0825 84.3854 46.54 84.2104 46.955C84.0354 47.37 83.7779 47.7275 83.4379 48.0275C83.1029 48.3275 82.6854 48.5625 82.1854 48.7325C81.6904 48.8975 81.1179 48.98 80.4679 48.98H78.7429V53H77.2954V42.2525H80.4679Z" fill="#505050" fill-opacity="0.8"/>
<path d="M107.1 33H100.166L86.0001 53H92.9025L107.1 33Z" fill="#FF7E20"/>
</svg>
