<svg width="20" height="20" viewBox="0 0 20 20" fill="none" xmlns="http://www.w3.org/2000/svg">
<path d="M10.1357 0.9C5.118 0.9 1.03574 4.98226 1.03574 10C1.03574 15.0177 5.118 19.1 10.1357 19.1C15.1535 19.1 19.2357 15.0177 19.2357 10C19.2357 4.98226 15.1535 0.9 10.1357 0.9ZM10.1357 3.72501C12.4583 3.72501 14.3483 5.61492 14.3483 7.93752C14.3483 10.2601 12.4583 12.15 10.1357 12.15C7.81318 12.15 5.92323 10.2601 5.92323 7.93749C5.92323 5.61489 7.81318 3.72501 10.1357 3.72501ZM10.1357 17.4C7.76208 17.4 5.65196 16.2715 4.29683 14.5273C5.78341 13.8249 7.86329 13.1 10.1357 13.1C12.4083 13.1 14.4884 13.825 15.9747 14.5272C14.6196 16.2715 12.5094 17.4 10.1357 17.4Z" fill="#333232" stroke="#333232" stroke-width="0.2"/>
</svg>
