<svg width="28" height="25" viewBox="0 0 28 25" fill="none" xmlns="http://www.w3.org/2000/svg">
<path d="M4.55667 10.7051H3.06894C3.01427 10.7051 2.96761 10.7483 2.96344 10.8028L2.96342 10.803L2.15942 20.9346C2.15942 20.9347 2.15941 20.9347 2.15941 20.9348C2.12123 21.4326 2.28722 21.909 2.62747 22.2764C2.96778 22.6437 3.43008 22.8457 3.93083 22.8457H12.3413C12.842 22.8457 13.3043 22.6437 13.6446 22.2764C13.9848 21.909 14.1509 21.4327 14.1127 20.9335L4.55667 10.7051ZM4.55667 10.7051V11.9036C4.55667 12.2499 4.83748 12.5307 5.18384 12.5307C5.53019 12.5307 5.81101 12.2499 5.81101 11.9036V10.7051H10.4611V11.9036C10.4611 12.2499 10.7419 12.5307 11.0883 12.5307C11.4346 12.5307 11.7154 12.2499 11.7154 11.9036V10.7051H13.2032C13.2574 10.7051 13.3045 10.7479 13.3088 10.8042L13.3088 10.8045L14.1126 20.9332L4.55667 10.7051ZM15.3632 20.836L15.3632 20.8357L14.5593 10.7069L14.4596 10.7145L14.5593 10.7066L14.5593 10.7067C14.5052 10.0021 13.9099 9.45075 13.2032 9.45075H11.7153C11.6999 7.4901 10.1003 5.9 8.13605 5.9C6.17183 5.9 4.57222 7.4901 4.55678 9.45075H3.06894C2.3623 9.45075 1.7669 10.002 1.7129 10.7054C1.7129 10.7054 1.7129 10.7055 1.71289 10.7055L0.908818 20.8371L0.908798 20.8373C0.844441 21.6763 1.13541 22.5114 1.70721 23.1287C2.279 23.746 3.08932 24.1 3.9308 24.1H12.3413C13.1827 24.1 13.9931 23.746 14.5649 23.1287C15.1367 22.5113 15.4276 21.6763 15.3632 20.836ZM11.7154 9.55075H11.6154V9.47938L11.7154 9.55075ZM5.81118 9.45075C5.82657 8.18194 6.8637 7.15434 8.13605 7.15434C9.4084 7.15434 10.4455 8.18198 10.4609 9.45075H5.81118Z" fill="#333232" stroke="#333232" stroke-width="0.2"/>
<circle cx="19.1357" cy="9" r="7.75" fill="#333232" stroke="#FFF7F2" stroke-width="1.5"/>
<path d="M19.3037 12.1172C18.973 12.1172 18.6891 12.0703 18.4521 11.9766C18.2178 11.8802 18.0329 11.7396 17.8975 11.5547C17.762 11.3698 17.6631 11.1589 17.6006 10.9219C17.5407 10.6823 17.5107 10.4049 17.5107 10.0898V9.85938H18.8506V10.0859C18.8532 10.4167 18.887 10.651 18.9521 10.7891C19.0173 10.9245 19.1396 10.9922 19.3193 10.9922C19.4938 10.9922 19.6097 10.9258 19.667 10.793C19.7243 10.6602 19.7529 10.4388 19.7529 10.1289C19.7529 9.79036 19.7048 9.54297 19.6084 9.38672C19.5146 9.23047 19.3363 9.14844 19.0732 9.14062H18.8389V8.20312H19.0498C19.3206 8.20052 19.5055 8.1276 19.6045 7.98438C19.7035 7.83854 19.7529 7.59896 19.7529 7.26562C19.7529 7.0026 19.7178 6.80859 19.6475 6.68359C19.5798 6.55859 19.46 6.49609 19.2881 6.49609C19.1188 6.49609 19.0042 6.5638 18.9443 6.69922C18.8844 6.83203 18.8532 7.02995 18.8506 7.29297V7.625H17.5107V7.23438C17.5107 6.65625 17.667 6.20964 17.9795 5.89453C18.2946 5.57943 18.7295 5.42188 19.2842 5.42188C19.8519 5.42188 20.292 5.57292 20.6045 5.875C20.917 6.17448 21.0732 6.60938 21.0732 7.17969C21.0732 7.54688 20.9977 7.85938 20.8467 8.11719C20.6982 8.375 20.5081 8.53516 20.2764 8.59766C20.8076 8.79036 21.0732 9.28906 21.0732 10.0938C21.0732 10.401 21.0407 10.6745 20.9756 10.9141C20.9131 11.1536 20.8128 11.3659 20.6748 11.5508C20.5394 11.7331 20.3558 11.8737 20.124 11.9727C19.8923 12.069 19.6188 12.1172 19.3037 12.1172Z" fill="#FFF7F2"/>
</svg>
